<?xml version="1.0" encoding="UTF-8"?> <svg xmlns="http://www.w3.org/2000/svg" width="180px" height="70px" viewBox="0 0 180 70"><defs><linearGradient x1="-0.0334151551%" y1="49.984226%" x2="99.9611732%" y2="49.984226%" id="linearGradient-1"><stop stop-color="#EF7422" offset="6.488793%"></stop><stop stop-color="#AE3324" offset="83.17%"></stop></linearGradient><linearGradient x1="0.0619729163%" y1="49.914777%" x2="100.041514%" y2="49.914777%" id="linearGradient-2"><stop stop-color="#BCBDBF" offset="43.02%"></stop><stop stop-color="#FFFFFF" offset="65.03%"></stop><stop stop-color="#A7A8AB" offset="100%"></stop></linearGradient><linearGradient x1="49.998938%" y1="5.02113805%" x2="49.998938%" y2="101.992334%" id="linearGradient-3"><stop stop-color="#59595C" stop-opacity="0.4" offset="0%"></stop><stop stop-color="#656567" stop-opacity="0.4325" offset="0.7108231%"></stop><stop stop-color="#8B8D8C" stop-opacity="0.5541" offset="3.372465%"></stop><stop stop-color="#A9ACA9" stop-opacity="0.6739" offset="5.996279%"></stop><stop stop-color="#BFC2BD" stop-opacity="0.79" offset="8.537631%"></stop><stop stop-color="#CCCFCA" stop-opacity="0.9006" offset="10.96%"></stop><stop stop-color="#D0D4CE" offset="13.14%"></stop><stop stop-color="#D1D2D3" offset="47.76%"></stop><stop stop-color="#424143" stop-opacity="0.1" offset="68.84%"></stop><stop stop-color="#585959" stop-opacity="0.1908" offset="70.92%"></stop><stop stop-color="#7E817E" stop-opacity="0.3642" offset="74.88%"></stop><stop stop-color="#9BA09B" stop-opacity="0.5351" offset="78.79%"></stop><stop stop-color="#B0B6B0" stop-opacity="0.7006" offset="82.57%"></stop><stop stop-color="#BDC3BD" stop-opacity="0.8583" offset="86.18%"></stop><stop stop-color="#C1C8C1" offset="89.42%"></stop><stop stop-color="#373430" offset="100%"></stop></linearGradient><linearGradient x1="52.8261378%" y1="45.5108711%" x2="32.8589058%" y2="95.2425309%" id="linearGradient-4"><stop stop-color="#DF5826" offset="0%"></stop><stop stop-color="#FAAF3A" offset="100%"></stop></linearGradient><linearGradient x1="-5.0867895%" y1="84.6226264%" x2="95.8310806%" y2="42.0923954%" id="linearGradient-5"><stop stop-color="#DA8927" offset="0%"></stop><stop stop-color="#BB4026" offset="100%"></stop></linearGradient><linearGradient x1="50.7648452%" y1="-25.1901434%" x2="49.9659381%" y2="60.9098346%" id="linearGradient-6"><stop stop-color="#E35B25" offset="0%"></stop><stop stop-color="#FAAF3A" offset="100%"></stop></linearGradient><linearGradient x1="95.1119774%" y1="50.6422803%" x2="-7.13669332%" y2="48.0827026%" id="linearGradient-7"><stop stop-color="#E35B25" offset="0%"></stop><stop stop-color="#FAAF3A" offset="100%"></stop></linearGradient><linearGradient x1="-8.31805269%" y1="21.4996967%" x2="83.4016409%" y2="58.0005628%" id="linearGradient-8"><stop stop-color="#DA8927" offset="0%"></stop><stop stop-color="#BB4026" offset="100%"></stop></linearGradient><linearGradient x1="1.6239896%" y1="14.9775578%" x2="137.243526%" y2="143.20231%" id="linearGradient-9"><stop stop-color="#EEA032" offset="6.488793%"></stop><stop stop-color="#F16122" offset="83.17%"></stop></linearGradient><linearGradient x1="5.58494376%" y1="112.090311%" x2="76.1121676%" y2="5.64394464%" id="linearGradient-10"><stop stop-color="#EEA032" offset="6.488793%"></stop><stop stop-color="#F16122" offset="83.17%"></stop></linearGradient><linearGradient x1="64.3412338%" y1="81.232283%" x2="44.9372294%" y2="32.0954986%" id="linearGradient-11"><stop stop-color="#E35B25" offset="0%"></stop><stop stop-color="#FAAF3A" offset="100%"></stop></linearGradient></defs><g id="Logotypes-/-Betano-/-large-Copy" stroke="none" stroke-width="1" fill="none" fill-rule="evenodd"><g id="logo-betano-sketch-compatible" transform="translate(1.000000, 4.000000)" fill-rule="nonzero"><g id="Group" transform="translate(57.412578, 15.031775)"><path d="M14.9269325,0.646688743 C19.4595399,0.646688743 21.5724847,2.89308122 20.686411,7.0795399 C20.2092945,9.32593239 18.8120245,10.9596724 17.0057975,11.9126874 C18.8120245,12.8316661 19.7321779,14.5675148 19.1869018,17.2563785 C18.198589,21.817236 14.9610123,23.9274834 10.1216871,23.9274834 L0.102239264,23.9274834 L5.04380368,0.646688743 L14.9269325,0.646688743 Z M9.84904908,19.638916 C11.5530368,19.638916 12.643589,18.8560823 13.052546,16.9840885 C13.4274233,15.0440223 12.7117485,14.3292611 10.973681,14.3292611 L8.24730061,14.3292611 L7.12266871,19.638916 L9.84904908,19.638916 Z M11.8256748,9.97262113 C13.2570245,9.97262113 14.2112577,9.01960613 14.5520552,7.45393864 C14.8928528,5.82019869 14.3134969,4.93525618 12.916227,4.93525618 L10.2920859,4.93525618 L9.2356135,9.97262113 L11.8256748,9.97262113 Z M38.5782822,0.646688743 C38.6464417,1.12319623 38.6123621,1.94006623 38.4419632,2.82500872 C38.203405,3.7780237 37.930767,4.66296618 37.5899694,5.20754618 L28.7973925,5.20754618 L27.8090798,9.93858487 L34.9999081,9.93858487 C35.0339877,10.4831649 35.0680676,11.1298536 34.8635891,12.1509411 C34.6250307,13.1720286 34.3523926,13.8187173 34.045675,14.3973336 L26.8548466,14.3973336 L25.7983744,19.366626 L34.9317486,19.366626 C34.9999081,19.911206 34.9658282,20.7621122 34.7613497,21.6130185 C34.5568712,22.5319972 34.318313,23.3488672 33.9434356,23.9274834 L18.6757055,23.9274834 L23.6172699,0.646688743 L38.5782822,0.646688743 Z M57.6288652,0.646688743 C57.6288652,0.646688743 57.7311043,1.66777623 57.3903067,3.1653712 C57.0835891,4.62892994 56.538313,5.71808992 56.538313,5.71808992 L51.0514724,5.71808992 L47.2345399,23.6211572 C47.2345399,23.6211572 45.8713497,23.9274834 44.0992025,23.9274834 C42.1566566,23.9274834 41.100184,23.6211572 41.100184,23.6211572 L44.9171166,5.71808992 L39.2598773,5.71808992 C39.2598773,5.71808992 39.1235583,4.73103868 39.4643558,3.2334437 C39.8051534,1.66777623 40.3504294,0.646688743 40.3504294,0.646688743 L57.6288652,0.646688743 Z M65.2286503,0.646688743 C67.920951,0.646688743 69.1137423,0.953014989 69.1137423,0.953014989 L71.3630061,23.6551934 C71.3630061,23.6551934 70.2383744,23.9615197 68.1254296,23.9615197 C66.2169633,23.9615197 65.2286503,23.6551934 65.2286503,23.6551934 L64.8537731,19.4006623 L57.3903067,19.4006623 L55.1751228,23.6551934 C55.1751228,23.6551934 54.0164112,23.9615197 52.1420245,23.9615197 C50.3357977,23.9615197 49.2793252,23.6551934 49.2793252,23.6551934 L61.1731596,0.953014989 C61.1731596,0.953014989 62.638589,0.646688743 65.2286503,0.646688743 Z M63.8654601,6.02441616 C63.8654601,6.02441616 63.3542637,7.86237365 62.2637115,9.97262113 L59.5373312,15.1461311 L64.4448158,15.1461311 L64.0017791,9.97262113 C63.7973006,7.82833741 64.0017791,6.02441616 64.0017791,6.02441616 L63.8654601,6.02441616 Z M81.0416564,13.0018473 C80.4963804,9.76840363 80.5645399,6.9433949 80.5645399,6.9433949 L80.3941412,6.9433949 C80.3941412,6.9433949 80.1555828,9.73436737 79.4058282,13.3762461 L77.2247239,23.6551934 C77.2247239,23.6551934 76.2704908,23.9615197 74.4642639,23.9615197 C72.7261963,23.9615197 71.9764417,23.6551934 71.9764417,23.6551934 L76.7816872,0.953014989 C76.7816872,0.953014989 78.1789571,0.646688743 80.9394173,0.646688743 C83.6657977,0.646688743 84.7904294,0.953014989 84.7904294,0.953014989 L86.6648161,11.4702161 C87.1419326,14.6015511 87.1078528,18.141321 87.1078528,18.141321 L87.2441718,18.141321 C87.2441718,18.141321 87.6531288,14.6696236 88.4369633,11.0958173 L90.5839877,0.987051237 C90.5839877,0.987051237 91.7426994,0.68072499 93.344448,0.68072499 C95.0143558,0.68072499 95.8663498,0.987051237 95.8663498,0.987051237 L91.0611043,23.6892297 C91.0611043,23.6892297 89.7660736,23.9955559 87.0056136,23.9955559 C84.4496319,23.9955559 83.0523621,23.6892297 83.0523621,23.6892297 L81.0416564,13.0018473 Z M107.555706,0.238253747 C113.7923,0.238253747 116.927638,4.39067621 115.121411,12.8316661 C113.349264,21.272656 108.850736,24.3359184 102.580061,24.3359184 C96.3093865,24.3359184 93.2762885,20.2515685 95.0484357,11.8446148 C96.8205827,3.5057337 101.31911,0.238253747 107.555706,0.238253747 Z M106.669632,4.86718368 C104.386288,4.86718368 102.75046,6.29670616 101.45543,12.2870861 C100.194479,18.277466 101.216871,19.6729523 103.534294,19.6729523 C105.885797,19.6729523 107.487546,18.2434298 108.748497,12.2870861 C110.043527,6.29670616 109.021135,4.86718368 106.669632,4.86718368 Z" id="XMLID_367_" fill="#EDEDED"></path><g id="XMLID_357_" opacity="0.6" transform="translate(2.385582, 0.000000)" fill="#FFFFFF"><path d="M93.4807667,0.953014989 C93.4807667,0.953014989 92.628773,0.646688743 90.9588649,0.646688743 C89.3571166,0.646688743 88.1984049,0.953014989 88.1984049,0.953014989 L86.6648158,8.23677238 L91.9812575,7.96448241 L93.4807667,0.953014989 Z" id="XMLID_366_"></path><path d="M105.204202,0.238253747 C100.05816,0.238253747 96.1389876,2.45060996 93.8897238,7.86237365 L100.603436,7.52201114 C101.625828,5.47983619 102.81862,4.86718368 104.318129,4.86718368 C105.783558,4.86718368 106.703712,5.41176369 106.90819,7.21568491 L113.178865,6.90935867 C112.599509,2.45060996 109.73681,0.238253747 105.204202,0.238253747 Z" id="XMLID_365_"></path><path d="M32.614325,9.93858487 L25.4234969,9.93858487 L26.4118097,5.20754618 L35.2043864,5.20754618 C35.5111043,4.66296618 35.817822,3.7780237 36.0563804,2.82500872 C36.226779,1.94006623 36.2608589,1.15723248 36.1926994,0.646688743 L21.2316871,0.646688743 L18.880184,11.6403973 L32.5802454,10.9596724 C32.6484049,10.5512374 32.6484049,10.2449111 32.614325,9.93858487 Z" id="XMLID_364_"></path><path d="M18.334908,7.0795399 C19.2209816,2.92711746 17.1080368,0.646688743 12.5754294,0.646688743 L2.65822086,0.646688743 L0.102239264,12.5934123 L14.7565337,11.8446148 C16.4946012,10.8915999 17.8577914,9.29189613 18.334908,7.0795399 Z M12.1664724,7.45393864 C11.8256748,9.05364239 10.8714417,9.97262113 9.44009202,9.97262113 L6.81595092,9.97262113 L7.87242331,4.93525618 L10.4965644,4.93525618 C11.9279141,4.93525618 12.5413497,5.78616242 12.1664724,7.45393864 Z" id="XMLID_361_"></path><path d="M48.6999694,5.71808992 L54.1868098,5.71808992 C54.1868098,5.71808992 54.7320859,4.62892994 55.0388038,3.1653712 C55.3796013,1.66777623 55.277362,0.646688743 55.277362,0.646688743 L37.9648466,0.646688743 C37.9648466,0.646688743 37.4195706,1.66777623 37.078773,3.2334437 C36.7720553,4.73103868 36.8742945,5.71808992 36.8742945,5.71808992 L42.5315337,5.71808992 L41.5091411,10.4831649 L47.7116564,10.1768386 L48.6999694,5.71808992 Z" id="XMLID_360_"></path><path d="M78.0085582,6.9433949 L78.1789571,6.9433949 C78.1789571,6.9433949 78.1789571,7.62411991 78.2130367,8.67924365 L83.7339569,8.40695365 L82.4048466,0.987051237 C82.4048466,0.987051237 81.2802146,0.68072499 78.5538342,0.68072499 C75.7933742,0.68072499 74.3961042,0.987051237 74.3961042,0.987051237 L72.6921164,8.95153363 L77.77,8.67924365 C77.9403987,7.59008364 78.0085582,6.9433949 78.0085582,6.9433949 Z" id="XMLID_359_"></path><path d="M61.4798773,6.02441616 L61.6161963,6.02441616 C61.6161963,6.02441616 61.4457974,7.55604741 61.5821164,9.49611363 L67.5460736,9.18978739 L66.7281595,0.953014989 C66.7281595,0.953014989 65.535368,0.646688743 62.8430675,0.646688743 C60.2530061,0.646688743 58.7875766,0.953014989 58.7875766,0.953014989 L54.1186503,9.87051237 L60.0826072,9.56418613 C61.0368406,7.62411991 61.4798773,6.02441616 61.4798773,6.02441616 Z" id="XMLID_358_"></path></g><g id="XMLID_200_" opacity="0.1" transform="translate(0.000000, 17.698850)" fill="#949B95"><path d="M41.100184,5.92230742 C41.100184,5.92230742 42.1566566,6.22863366 44.0992025,6.22863366 C45.8713497,6.22863366 47.2345399,5.92230742 47.2345399,5.92230742 L47.9502148,2.62079122 L41.8840183,2.28042872 L41.100184,5.92230742 Z" id="XMLID_356_"></path><path d="M65.2286503,5.92230742 C65.2286503,5.92230742 66.1828834,6.22863366 68.1254293,6.22863366 C70.2383741,6.22863366 71.3630061,5.92230742 71.3630061,5.92230742 L71.1585276,3.9141687 L65.0241718,3.5738062 L65.2286503,5.92230742 Z" id="XMLID_355_"></path><path d="M49.2793252,5.92230742 C49.2793252,5.92230742 50.3017178,6.22863366 52.1420245,6.22863366 C54.0164109,6.22863366 55.1751226,5.92230742 55.1751226,5.92230742 L56.6405521,3.0972987 L50.949233,2.79097246 L49.2793252,5.92230742 Z" id="XMLID_354_"></path><path d="M25.7983741,1.66777623 L25.8665336,1.36144998 L19.8003374,1.02108749 L18.7097853,6.22863366 L33.9775152,6.22863366 C34.3183128,5.65001742 34.5909508,4.79911118 34.7954293,3.9141687 C34.9658282,3.1653712 34.9999079,2.45060996 34.9658282,1.90602998 L31.2170552,1.70181248 L25.7983741,1.70181248 L25.7983741,1.66777623 Z" id="XMLID_353_"></path><path d="M102.580061,6.63706867 C104.21589,6.63706867 105.749478,6.43285116 107.146748,5.95634366 L97.6725767,5.41176369 C98.9676074,6.22863366 100.603436,6.63706867 102.580061,6.63706867 Z" id="XMLID_316_"></path><path d="M71.9764417,5.92230742 C71.9764417,5.92230742 72.7261963,6.22863366 74.4642639,6.22863366 C76.2364112,6.22863366 77.2247239,5.92230742 77.2247239,5.92230742 L77.5655215,4.28856744 L72.3853988,3.9822412 L71.9764417,5.92230742 Z" id="XMLID_305_"></path><path d="M10.1216871,6.22863366 C14.4157362,6.22863366 17.4829141,4.56085744 18.7779448,0.953014989 L12.5413497,0.612652493 C11.9619939,1.53163123 11.0759202,1.94006623 9.84904908,1.94006623 L7.12266871,1.94006623 L7.46346626,0.340362496 L1.39726994,-1.137e-13 L0.0681595092,6.22863366 L10.1216871,6.22863366 Z" id="XMLID_283_"></path><path d="M83.0182822,5.92230742 C83.0182822,5.92230742 84.4155523,6.22863366 86.9715337,6.22863366 C89.731994,6.22863366 91.0270247,5.92230742 91.0270247,5.92230742 L91.1974233,5.03736495 L82.7797238,4.56085744 L83.0182822,5.92230742 Z" id="XMLID_245_"></path></g></g><g id="XMLID_317_" opacity="0.1" transform="translate(57.412578, 32.730625)" fill="#949B95"><path d="M41.2365031,5.92230743 C41.2365031,5.92230743 42.2929756,6.22863366 44.2355215,6.22863366 C46.0076687,6.22863366 47.3708589,5.92230743 47.3708589,5.92230743 L48.0865339,2.62079122 L42.0203375,2.28042872 L41.2365031,5.92230743 Z" id="XMLID_325_"></path><path d="M65.3308894,5.92230743 C65.3308894,5.92230743 66.2851226,6.22863366 68.1935888,6.22863366 C70.3065336,6.22863366 71.4311656,5.92230743 71.4311656,5.92230743 L71.2266871,3.9141687 L65.0923313,3.5738062 L65.3308894,5.92230743 Z" id="XMLID_324_"></path><path d="M49.4156442,5.92230743 C49.4156442,5.92230743 50.4380368,6.22863366 52.2442639,6.22863366 C54.1186503,6.22863366 55.277362,5.92230743 55.277362,5.92230743 L56.7427915,3.0972987 L51.0514724,2.79097246 L49.4156442,5.92230743 Z" id="XMLID_323_"></path><path d="M25.968773,1.66777623 L26.0369325,1.36144998 L19.9707362,1.02108749 L18.880184,6.22863366 L34.1138342,6.22863366 C34.4546318,5.65001742 34.7272698,4.79911118 34.9317483,3.9141687 C35.1021472,3.1653712 35.1362269,2.45060996 35.1021472,1.90602998 L31.3874539,1.70181248 L25.968773,1.70181248 L25.968773,1.66777623 Z" id="XMLID_322_"></path><path d="M102.614141,6.63706867 C104.249969,6.63706867 105.783558,6.43285116 107.146748,5.95634366 L97.7066563,5.41176369 C99.001687,6.22863366 100.637515,6.63706867 102.614141,6.63706867 Z" id="XMLID_321_"></path><path d="M72.0446012,5.92230743 C72.0446012,5.92230743 72.7943558,6.22863366 74.5324232,6.22863366 C76.3045704,6.22863366 77.2928834,5.92230743 77.2928834,5.92230743 L77.633681,4.28856744 L72.4535583,3.9822412 L72.0446012,5.92230743 Z" id="XMLID_320_"></path><path d="M10.2920859,6.22863366 C14.586135,6.22863366 17.6192331,4.56085744 18.9483436,0.987051237 L12.7117485,0.646688743 C12.1323926,1.56566748 11.246319,1.97410248 10.0535276,1.97410248 L7.32714724,1.97410248 L7.66794479,0.374398744 L1.60174847,0.0340362496 L0.272638037,6.26266993 L10.2920859,6.26266993 L10.2920859,6.22863366 Z" id="XMLID_319_"></path><path d="M83.0864417,5.92230743 C83.0864417,5.92230743 84.4837115,6.22863366 87.0396933,6.22863366 C89.8001533,6.22863366 91.0611043,5.92230743 91.0611043,5.92230743 L91.2315029,5.03736495 L82.8138037,4.56085744 L83.0864417,5.92230743 Z" id="XMLID_318_"></path></g><g id="XMLID_284_" transform="translate(0.158588, 0.055826)"><path d="M50.8129142,34.4446846 C50.5743558,33.9001045 50.3017178,33.3555246 49.9950001,32.8790171 C49.6201227,32.2663647 49.1770858,31.653712 48.768129,31.0750959 C48.5977301,30.8368421 48.3932515,30.5645521 48.2228529,30.258226 C47.9502148,29.7817184 48.052454,29.203102 48.3932515,28.7265945 C51.7671474,23.9615197 51.4263498,19.1964448 50.5743558,16.4395085 C49.4838037,12.8657023 46.0076687,9.29189613 41.6454601,6.63706867 C38.8168406,4.93525618 35.7496627,3.53976996 32.6143253,2.41657372 C30.3309816,1.59970373 28.0476382,0.918978739 25.6620553,0.510543745 C24.0943865,0.238253747 22.4244785,0.136144998 20.8568098,0.408434994 C18.607546,0.612652493 16.2219632,1.08915999 14.0067791,1.53163123 C11.4167178,2.00813872 8.41769939,2.38253747 6.37291411,4.1864587 C4.46444785,5.82019869 3.37389571,8.20273615 2.69230061,10.5852736 C1.43134969,15.0440223 0.783834356,19.638916 0.477116564,24.2338097 C0.170398773,28.7946671 0.170398773,33.423597 0.340797546,37.9844545 C0.44303681,40.6392819 0.715674847,43.3281457 1.19279141,45.9489368 C1.84030675,49.3185255 2.9308589,52.8242594 5.00972393,55.6152318 C5.555,56.3640293 6.23659509,57.0447543 6.98634969,57.5893342 C8.92889571,58.9848205 11.4167178,59.2230743 13.7341411,59.461328 C18.2326687,59.869763 22.9015951,61.2992855 27.3660431,59.8357267 C28.5247547,59.5634366 29.717546,59.2230743 30.8762577,58.8486756 C33.0914418,58.099878 35.2725461,57.2149355 37.351411,56.2278842 C39.5665952,55.1727605 41.7136196,53.9134194 43.7243253,52.4498605 C45.6327915,51.0543745 47.4390184,49.4206344 48.904448,47.5486406 C50.3017178,45.7447193 51.1196319,43.7706169 51.6308283,41.592297 C51.6989879,41.3540432 51.7671474,41.0817532 51.801227,40.8094631 C52.0397854,38.6651795 51.6308283,36.418787 50.8129142,34.4446846 Z M26.548129,41.6603696 C25.8665336,42.1709131 25.116779,42.6133844 24.3670245,43.0558556 C22.4244785,44.1450156 20.3456135,45.2682118 18.198589,45.8808645 C17.4829141,46.085082 16.6990798,46.2212269 15.9493252,46.2212269 C15.8130061,46.2212269 14.3134969,46.1871906 14.3134969,46.085082 C11.5189571,30.5645521 14.3134969,14.6355873 14.3134969,14.6355873 C14.5179755,14.2611886 16.4605215,14.6015511 16.665,14.6355873 C18.3689877,14.9419136 20.004816,15.6226386 21.6065644,16.3033635 C23.0719939,16.9500523 24.5374233,17.596741 25.8665336,18.4816835 C27.5023621,19.5708435 29.5130675,21.408801 29.717546,23.4850122 C29.9220245,25.2548972 29.3426688,26.6503835 28.456595,28.1820147 C28.1498773,28.7265945 27.5364417,29.3732835 27.6386809,30.0540085 C27.7750001,30.8368421 28.4225153,31.5175671 28.8996319,32.1302195 C29.308589,32.6747996 29.6834664,33.2874521 29.9220245,33.9341408 C31.1829753,37.0654757 28.9337118,39.9245207 26.548129,41.6603696 Z" id="XMLID_302_" fill="url(#linearGradient-1)"></path><path d="M50.7788344,34.4446846 C50.540276,33.9001045 50.2676379,33.3895609 49.9609202,32.8790171 C49.5860428,32.2663647 49.1430061,31.653712 48.7340491,31.0750959 C48.5636502,30.8368421 48.3591717,30.5645521 48.188773,30.258226 C47.916135,29.7817184 48.0183741,29.2371383 48.3591717,28.7265945 C51.7330675,23.9615197 51.3922699,19.1964448 50.540276,16.4395085 C49.4497238,12.8657023 45.9735888,9.29189613 41.6113802,6.63706867 C38.7827607,4.93525618 35.7155828,3.53976996 32.5802454,2.41657372 C30.296902,1.59970373 28.0135583,0.918978739 25.6279755,0.510543745 C24.0603067,0.238253747 22.3903988,0.136144998 20.8227301,0.408434994 C18.5734663,0.612652493 16.1878834,1.08915999 13.9726994,1.53163123 C11.382638,2.00813872 8.41769939,2.41657372 6.33883436,4.1864587 C4.19180982,6.02441616 3.33981595,8.20273615 2.65822086,10.5852736 C1.39726994,15.0440223 0.749754601,19.638916 0.44303681,24.2338097 C0.136319018,28.7946671 0.136319018,33.423597 0.306717791,37.9844545 C0.408957055,40.6392819 0.681595092,43.3281457 1.19279141,45.9489368 C1.84030675,49.3185255 2.9308589,52.8242594 5.00972393,55.5811955 C5.555,56.329993 6.23659509,57.0107181 6.98634969,57.5552979 C8.92889571,58.9507842 11.4167178,59.189038 13.7341411,59.4272917 C18.2326687,59.8357267 22.9015951,61.2652493 27.3660428,59.8016904 C28.5247545,59.5294006 29.717546,59.189038 30.8762577,58.8146393 C33.0914416,58.0658417 35.2725459,57.1808992 37.3854907,56.1938481 C39.6006748,55.1387242 41.7476993,53.8793831 43.724325,52.4158242 C45.6327913,51.0203382 47.4390184,49.3865981 48.9044477,47.5146043 C50.3017178,45.7106831 51.1196319,43.7365806 51.6308281,41.5582607 C51.6989876,41.3200069 51.7671471,41.0477169 51.801227,40.7754271 C52.0057055,38.6311432 51.5967485,36.418787 50.7788344,34.4446846 Z M46.0758282,47.8549669 C46.0758282,47.8549669 42.6337731,52.245643 31.6941718,56.4321017 C31.6941718,56.4321017 25.6620551,58.9848205 22.1177607,58.1679506 C22.1177607,58.1679506 17.7214724,57.7595156 15.5744479,53.1986581 C15.5744479,53.1986581 12.779908,49.4546707 12.2005521,33.1513072 C12.2005521,33.1513072 12.2005521,15.7928198 15.1995706,8.67924365 C15.1995706,8.67924365 17.1761963,2.17831997 23.9239877,2.34850122 C23.9239877,2.34850122 32.1712883,2.75693622 42.4974541,9.42804113 C42.4974541,9.42804113 51.4263498,14.1250436 48.8362885,23.8934472 C48.8362885,23.8934472 47.916135,26.3440571 46.0417486,29.0329209 C46.0417486,29.0329209 45.4964725,29.7817184 46.1439877,30.4964797 C46.1439877,30.4964797 50.2676382,34.9892644 50.0631596,39.141687 C50.0972393,39.2097596 50.5402762,43.8046532 46.0758282,47.8549669 Z" id="XMLID_299_" fill="#373430"></path><path d="M50.7788344,34.4446846 C50.5402762,33.9001045 50.2676382,33.3895609 49.9609202,32.8790171 C49.5860431,32.2663647 49.1430061,31.653712 48.7340491,31.0750959 C48.5636504,30.8368421 48.3591719,30.5645521 48.188773,30.258226 C47.916135,29.7817184 48.052454,29.2371383 48.3932515,28.7606308 C51.7671474,23.9955559 51.3922699,19.1964448 50.5402762,16.4735448 C49.449724,12.8997386 45.9735891,9.32593239 41.5773006,6.6711049 C38.7486811,4.96929245 35.6815032,3.5738062 32.5461658,2.45060996 C30.2628221,1.63373998 27.9794787,0.953014989 25.5938958,0.544579992 C24.026227,0.272289996 22.356319,0.170181248 20.7886503,0.442471244 C18.5393865,0.646688743 16.1538037,1.12319623 13.9386196,1.56566748 C11.3485583,2.04217497 8.34953988,2.41657372 6.3047546,4.22049494 C3.88509202,6.33074243 3.3057362,8.23677238 2.6241411,10.6193099 C1.36319018,15.0780586 0.715674847,19.6729523 0.408957055,24.2678459 C0.102239264,28.8287034 0.102239264,33.4576333 0.272638037,38.0184908 C0.374877301,40.6733182 0.647515337,43.362182 1.1246319,45.9829731 C1.77214724,49.3525618 2.86269939,52.8582955 4.94156442,55.649268 C5.48684049,56.3980656 6.16843558,57.0787906 6.91819018,57.6233705 C8.8607362,59.0188568 11.3485583,59.2571105 13.6659816,59.4953643 C18.1645092,59.9037993 22.8334356,61.3333218 27.2978836,59.869763 C28.4565952,59.5974729 29.6493865,59.2571105 30.8080982,58.8827116 C33.0232823,58.1339143 35.2043866,57.2489718 37.3173314,56.2619205 C39.5325153,55.2067968 41.7136196,53.9814917 43.6902454,52.5179331 C45.5987117,51.1224468 47.4049388,49.488707 48.8362885,47.6167132 C50.2335583,45.8127919 51.0514724,43.8046532 51.5626688,41.6263333 C51.6308283,41.3880795 51.6989879,41.1157895 51.7330675,40.8434994 C52.0397854,38.6311432 51.5967485,36.418787 50.7788344,34.4446846 Z M46.5188649,48.6378005 C46.5188649,48.6378005 42.7700919,53.0965492 31.4215337,57.4872256 C31.4215337,57.4872256 25.2190184,60.0059079 21.5724847,59.1550017 C21.5724847,59.1550017 16.937638,58.8827116 14.6883742,54.1516731 C14.6883742,54.1516731 11.7915951,50.2715406 11.2122393,33.3214884 C11.2122393,33.3214884 11.2122393,15.3163123 14.3134969,7.93044615 C14.3134969,7.93044615 16.2901227,1.32741373 23.3105521,1.53163123 C23.3105521,1.53163123 31.8986503,1.80392123 42.6337729,8.71327989 C42.6337729,8.71327989 52.210184,13.7846811 49.5178833,23.8934472 C49.5178833,23.8934472 48.9726072,26.0036948 46.9619018,28.9308122 C46.9619018,28.9308122 46.4166258,29.7136459 46.7915029,30.1561171 C46.7915029,30.1561171 51.085552,35.1594459 50.9151534,39.4820494 C50.8810735,39.4820494 51.1877914,44.4173056 46.5188649,48.6378005 Z" id="XMLID_296_" fill="url(#linearGradient-2)"></path><path d="M46.1439877,33.3895609 C45.8031902,32.8790171 45.4964725,32.3684733 45.1556747,31.8919658 C44.6444785,31.1772045 44.167362,30.6666609 43.9969631,29.7817184 C43.9628834,29.577501 44.0992025,28.8287034 44.2696013,28.5564133 C46.9278222,24.7783897 47.8138958,22.634106 47.4390184,19.366626 C46.3825461,10.0747299 32.1031288,5.95634366 28.9337118,4.93525618 C19.8684969,2.04217497 16.9717178,5.37772742 15.4040491,10.4150924 C15.0291718,11.5042523 14.6542945,12.7976298 14.3134969,14.6355873 C14.5179755,14.2611886 16.4264417,14.7036598 16.6309202,14.7376961 C18.1304294,15.0440223 19.9707362,15.7247473 21.5384049,16.4054723 C23.0038344,17.0181248 24.435184,17.6988498 25.7983744,18.5837923 C27.4342026,19.6729523 29.4108283,21.4768735 29.6493865,23.5871209 C29.853865,25.357006 29.2745093,26.7524921 28.3884357,28.2500872 C28.0817178,28.7946671 27.5023621,29.4413558 27.5705216,30.0880445 C27.7068406,30.8708784 28.3543558,31.5516034 28.8314724,32.1642558 C29.2404294,32.7088359 29.5471474,33.3214884 29.8197854,33.9681771 C31.0807362,36.9974032 28.8314724,39.8904844 26.4799694,41.6263333 C25.7983744,42.1368769 25.0486198,42.5793481 24.3329448,42.9877833 C22.3903988,44.0769432 20.3456135,45.2001395 18.1645092,45.7787556 C17.4488344,45.9829731 16.6990798,46.1191183 15.9152454,46.1191183 C15.7789264,46.1191183 14.3475767,46.085082 14.3134969,45.9829731 C14.6883742,47.9230395 14.995092,49.2504532 15.1995706,49.9652143 C16.6990798,55.1046879 19.2209816,57.1808992 23.7876687,56.8065006 C28.0135583,56.466138 48.2569325,50.1353957 48.2569325,39.0395782 C48.2228526,36.9633671 47.3026994,35.1254096 46.1439877,33.3895609 Z" id="XMLID_295_" fill="#FAAF3A"></path><path d="M16.1878834,58.3381318 C12.4731902,55.5811955 11.2803988,50.5097944 10.6669632,46.2212269 C10.4284049,44.5874868 10.2239264,42.953747 10.0535276,41.320007 C9.91720859,40.0947021 9.81496933,38.869397 9.71273006,37.6440921 C9.40601227,33.4576333 9.33785276,29.2371383 9.64457055,25.0506797 C9.74680982,23.5871209 9.84904908,22.1575985 9.9853681,20.6940397 C10.1898466,18.7880098 10.3943252,16.8819798 10.7010429,15.0099861 C11.6552761,9.49611363 13.2570245,3.0292262 19.0846626,0.782833741 C19.5958589,0.578616242 19.8684969,0.510543745 20.413773,0.442471244 C18.1645092,0.68072499 16.0515644,1.05512374 13.8363804,1.46355873 C11.246319,1.97410248 8.38361963,2.34850122 6.33883436,4.15242244 C4.08957055,6.16056116 3.20349693,8.16869988 2.52190184,10.5512374 C1.26095092,15.0099861 0.613435583,19.6048798 0.306717791,24.2338097 C1.67921232e-15,28.7946671 0.136319018,33.4576333 0.306717791,38.0184908 C0.408957055,40.6733182 0.681595092,43.2941094 1.15871166,45.9149008 C1.80622699,49.2844893 2.76046012,52.8582955 4.83932515,55.649268 C5.38460123,56.3980656 6.06619632,57.0787906 6.81595092,57.6233705 C8.75849693,59.0188568 11.246319,59.2571105 13.5637423,59.4953643 C18.0622699,59.9037993 22.7311963,61.3333218 27.1956442,59.869763 C23.4809509,60.7547054 19.3913804,60.7206692 16.1878834,58.3381318 Z" id="XMLID_294_" fill="url(#linearGradient-3)"></path><path d="M15.1654908,14.4994423 C15.1654908,14.4994423 15.131411,10.6533461 19.2209816,4.79911118 C19.2209816,4.79911118 22.0155215,2.41657372 29.717546,5.17350992 C31.5237729,5.75212619 39.6006748,8.06659115 44.303681,13.0018473 C44.303681,13.0018473 46.2462269,14.9419136 46.9959815,17.2223423 L29.6153066,23.2807947 C29.6153066,23.2807947 29.6153066,23.2127222 29.581227,23.0765772 C29.4108281,22.497961 28.6951534,20.6259672 26.5140491,19.094336 C25.9006135,18.6518648 25.3212575,18.2434298 24.6737423,17.9030673 C24.6055828,17.869031 24.5374233,17.8349948 24.5033436,17.8009585 C23.4127914,17.1542698 21.6406442,16.4395085 21.6406442,16.4395085 C21.6406442,16.4395085 17.5169939,14.6355873 15.1654908,14.4994423 Z" id="XMLID_293_" fill="url(#linearGradient-4)" opacity="0.7"></path><path d="M28.3543558,28.2500872 C28.3543558,28.2500872 38.6123621,26.7184558 45.4623926,26.7524921 C45.4623926,26.7524921 47.20046,24.2338097 47.473098,21.7491635 C47.473098,21.7491635 47.7457363,19.366626 46.927822,17.2223423 L29.5471474,23.2807947 C29.5471474,23.2807947 29.717546,23.8253747 29.581227,24.9826071 C29.581227,25.0506797 29.581227,25.084716 29.5471474,25.1527883 C29.4789879,25.9696585 29.1381903,27.0247821 28.3543558,28.2500872 Z" id="XMLID_292_" fill="url(#linearGradient-5)" opacity="0.85"></path><path d="M44.4059204,28.3181596 C44.4059204,28.3181596 46.3825461,25.5271872 46.6892638,24.5060996 L29.2063498,26.5482746 C29.2063498,26.5482746 28.456595,28.216051 27.9794787,28.8287034 L44.4059204,28.3181596 Z" id="XMLID_291_" fill="url(#linearGradient-6)"></path><path d="M27.9794784,28.8287034 L44.4059201,28.3181596 C44.4059201,28.3181596 43.860644,28.9988846 44.0310429,29.9518996 L27.5364417,29.8838271 C27.5705213,29.8838271 27.6046012,29.4073195 27.9794784,28.8287034 Z" id="XMLID_290_" fill="#CB5827" opacity="0.85"></path><path d="M27.5705216,29.8838271 L44.0651228,29.9518996 C44.0651228,29.9518996 44.303681,30.5985883 45.3260736,32.0281109 C45.8372701,32.8109445 47.6775768,35.4317357 47.9842945,36.9974032 C47.9842945,36.9974032 40.2481903,35.465772 29.990184,34.4106483 C29.990184,34.4106483 29.0018713,32.2323284 28.4225153,31.6196757 C28.3884357,31.6196757 27.3660431,30.4964797 27.5705216,29.8838271 Z" id="XMLID_289_" fill="url(#linearGradient-7)"></path><path d="M29.9561044,34.4106483 C29.9561044,34.4106483 39.3961963,35.3636634 47.9502148,36.9974032 C47.9502148,36.9974032 49.3815643,40.6392819 46.1439877,45.1320669 L29.1381903,38.9034333 C29.1381903,38.9034333 30.6717791,36.827222 29.9561044,34.4106483 Z" id="XMLID_288_" fill="url(#linearGradient-8)" opacity="0.85"></path><path d="M14.6542945,46.1191183 L19.8684969,56.3980656 C19.8684969,56.3980656 18.6757055,56.057703 17.7555521,55.0025793 C17.7555521,55.0025793 17.1080368,54.3899269 16.4946012,53.3007667 C16.3582822,53.0625132 15.9834049,52.4498605 15.5403681,51.1905194 C15.4381288,50.884193 14.9269325,49.3865981 14.722454,48.161293 C14.4838957,47.0380968 14.3134969,46.085082 14.3134969,46.085082 C14.3134969,46.085082 14.3816564,46.085082 14.6542945,46.1191183 Z" id="XMLID_287_" fill="url(#linearGradient-9)"></path><path d="M15.1654908,14.4994423 C15.1654908,14.4994423 15.2336503,12.3211224 16.6990798,9.15575113 C17.3125153,7.89640991 18.6416258,5.58194492 19.2209816,4.79911118 C19.2209816,4.79911118 17.3125153,5.68405369 16.1197239,8.50906239 C15.8130061,9.15575113 15.0291718,11.3681073 14.722454,12.6614848 C14.4838957,13.6485361 14.3134969,14.3973336 14.3134969,14.6355873 C14.3134969,14.6355873 14.5179755,14.4313698 15.1654908,14.4994423 Z" id="XMLID_286_" fill="url(#linearGradient-10)"></path><path d="M29.1381901,38.9034333 L46.1439877,45.1320669 C46.1439877,45.1320669 44.6103987,47.446532 41.0320245,49.9311782 C40.6571471,50.1694317 40.2822699,50.4417218 39.9073925,50.6799756 C39.1917178,51.1224468 38.4078833,51.5989543 37.5218097,52.0754618 C36.2949385,52.7221506 34.8635888,53.4369119 32.9892025,54.1857094 C32.3757669,54.4239629 28.592914,55.9896304 25.0145399,56.6703554 C24.4011043,56.7724643 22.1518405,57.2489718 19.9025767,56.3980656 L14.6542945,46.1191183 C14.6542945,46.1191183 16.1197239,46.2552632 17.0398773,46.085082 C17.8237117,45.9149008 19.1187423,45.7447193 22.1518405,44.2130882 C23.0719939,43.7365806 25.1508589,42.5453121 25.3894171,42.3751306 C25.6279755,42.2049494 27.2297238,41.2519344 28.2180368,40.0947021 C28.5588344,39.6522309 28.6951534,39.5160857 29.1381901,38.9034333 Z" id="XMLID_285_" fill="url(#linearGradient-11)" opacity="0.85"></path></g><g id="XMLID_326_" opacity="0.6" transform="translate(59.798160, 15.031775)" fill="#FFFFFF"><path d="M93.5148466,0.987051237 C93.5148466,0.987051237 92.6628529,0.68072499 90.9929448,0.68072499 C89.4252761,0.68072499 88.2324848,0.987051237 88.2324848,0.987051237 L86.6988957,8.23677239 L92.0153374,7.96448241 L93.5148466,0.987051237 Z" id="XMLID_335_" opacity="0.1"></path><path d="M105.204203,0.272289996 C100.092239,0.272289996 96.1389879,2.48464622 93.9238037,7.86237365 L100.603436,7.52201114 C101.625828,5.47983619 102.81862,4.86718368 104.284049,4.86718368 C105.715399,4.86718368 106.669632,5.41176369 106.87411,7.21568491 L113.144785,6.90935867 C112.599509,2.48464622 109.73681,0.272289996 105.204203,0.272289996 Z" id="XMLID_334_" opacity="0.1"></path><path d="M32.7506443,9.93858487 L25.5938958,9.93858487 L26.5822086,5.24158242 L35.3747853,5.24158242 C35.6815029,4.69700244 35.9882209,3.81205994 36.2267793,2.85904496 C36.3971779,1.97410248 36.4312578,1.19126874 36.363098,0.68072499 L21.4361656,0.68072499 L19.1187423,11.6403973 L32.8188036,10.9596724 C32.7847239,10.5852736 32.7847239,10.2449111 32.7506443,9.93858487 Z" id="XMLID_333_" opacity="0.1"></path><path d="M18.471227,7.11357617 C19.3573006,2.9611537 17.2443558,0.68072499 12.7117485,0.68072499 L2.82861963,0.68072499 L0.306717791,12.5934123 L14.9269325,11.8446149 C16.665,10.8915999 18.0281902,9.32593239 18.471227,7.11357617 Z M12.3368712,7.45393864 C11.9960736,9.01960613 11.0418405,9.97262113 9.6104908,9.97262113 L6.98634969,9.97262113 L8.04282209,4.93525618 L10.6669632,4.93525618 C12.1323926,4.93525618 12.7117485,5.82019869 12.3368712,7.45393864 Z" id="XMLID_330_" opacity="0.1"></path><path d="M48.8022086,5.75212619 L54.2890492,5.75212619 C54.2890492,5.75212619 54.8343253,4.66296618 55.1410429,3.19940746 C55.4477609,1.70181248 55.3796013,0.68072499 55.3796013,0.68072499 L38.1011656,0.68072499 C38.1011656,0.68072499 37.5558896,1.70181248 37.215092,3.26747996 C36.9083744,4.76507495 37.0106135,5.75212619 37.0106135,5.75212619 L42.6678528,5.75212619 L41.6454601,10.5172011 L47.8479755,10.2108749 L48.8022086,5.75212619 Z" id="XMLID_329_" opacity="0.1"></path><path d="M78.0767179,6.9433949 L78.2471166,6.9433949 C78.2471166,6.9433949 78.2471166,7.62411991 78.2811964,8.64520739 L83.8021167,8.37291739 L82.4730061,0.953014989 C82.4730061,0.953014989 81.3483744,0.646688743 78.621994,0.646688743 C75.8615337,0.646688743 74.4983436,0.953014989 74.4983436,0.953014989 L72.7943558,8.91749739 L77.8722394,8.64520739 C78.0085584,7.59008364 78.0767179,6.9433949 78.0767179,6.9433949 Z" id="XMLID_328_" opacity="0.1"></path><path d="M61.5821167,6.05845243 L61.7184357,6.05845243 C61.7184357,6.05845243 61.5480368,7.59008364 61.6843558,9.53014989 L67.648313,9.22382363 L66.8303989,0.987051237 C66.8303989,0.987051237 65.6376074,0.68072499 62.9453069,0.68072499 C60.3552455,0.68072499 58.9238958,0.987051237 58.9238958,0.987051237 L54.2208897,9.87051237 L60.150767,9.56418613 C61.1390798,7.65815615 61.5821167,6.05845243 61.5821167,6.05845243 Z" id="XMLID_327_" opacity="0.1"></path></g></g></g></svg> 