<?xml version="1.0" encoding="UTF-8"?> <svg xmlns="http://www.w3.org/2000/svg" width="479" height="79" viewBox="0 0 479 79" fill="none"><path fill-rule="evenodd" clip-rule="evenodd" d="M52.4504 29.4325C48.9105 29.711 46.1233 30.386 43.758 31.5374C39.3825 33.6673 37.4274 36.7717 36.9719 42.3127C36.7989 44.4161 36.9825 48.1347 37.341 49.7881C38.3362 54.3789 41.2444 56.881 47.4581 58.4928C48.3648 58.7279 51.2323 59.2878 53.8303 59.7371C56.4284 60.1861 58.8202 60.6567 59.1455 60.7824C60.7293 61.3951 61.2251 62.2345 61.2316 64.3153C61.2371 66.0161 60.8953 66.8607 60.0048 67.3476C58.9925 67.9011 58.0494 67.9455 48.1647 67.9044L38.7772 67.8654L38.7021 68.275C38.6608 68.5003 38.2431 70.909 37.7739 73.6278L36.9211 78.571L37.6105 78.6551C37.9897 78.7014 43.3075 78.7169 49.428 78.6896C59.2499 78.6457 60.7565 78.611 62.2629 78.3939C70.2176 77.2478 73.9171 74.2757 75.0286 68.1385C75.1509 67.4626 75.2867 65.8588 75.3302 64.5743C75.6282 55.7772 73.3231 51.8735 66.5096 49.6361C64.8765 49.0999 62.7781 48.6623 56.3916 47.5263C53.4615 47.005 52.771 46.8365 52.0336 46.4628C50.8679 45.872 50.6536 45.4631 50.6379 43.7987C50.62 41.8959 50.9757 41.1173 52.0925 40.6147C53.2106 40.1114 54.6897 40.0521 63.5792 40.1545C71.8161 40.2493 72.0662 40.2447 72.1403 39.9951C72.323 39.3806 74.0272 29.5416 73.9622 29.4766C73.833 29.3476 54.0461 29.3069 52.4504 29.4325ZM0 54.0064V78.5839H17.7407H35.4814L35.6245 77.867C36.0617 75.6765 37.4124 68.3364 37.4124 68.1514C37.4124 67.9537 36.2867 67.9336 25.1919 67.9336H12.9714V63.496V59.0584H22.7733H32.5754L33.5044 54.1088C34.0154 51.3866 34.4662 48.9901 34.5062 48.7837L34.5791 48.4082H23.7753H12.9714V44.2437V40.0792H24.0313C30.1142 40.0792 35.0912 40.0495 35.0912 40.0135C35.0912 39.9773 35.5213 37.6677 36.047 34.8809C36.5726 32.0942 37.0027 29.7274 37.0027 29.6216C37.0027 29.4567 34.3351 29.4289 18.5014 29.4289H0V54.0064ZM75.4556 29.6679C75.4168 29.7994 74.9491 32.2417 74.4161 35.0954C73.883 37.9491 73.4148 40.3916 73.3756 40.5229C73.3083 40.7486 73.7523 40.7619 81.3696 40.7619H89.4347V59.6729V78.5839H96.1935H102.952V59.6729V40.7619H109.916C113.746 40.7619 116.88 40.7093 116.88 40.6451C116.88 40.581 117.34 38.0937 117.904 35.1179C118.467 32.1422 118.928 29.6448 118.928 29.5682C118.928 29.4741 111.887 29.4289 97.2267 29.4289C76.6771 29.4289 75.5221 29.4416 75.4556 29.6679ZM119.337 54.0064V78.5839H125.96H132.582V70.5962V62.6085H135.85H139.119L143.164 70.5962L147.21 78.5839H154.374H161.538L161.374 78.2767C161.284 78.1078 158.943 73.9849 156.172 69.1149C153.4 64.2448 151.153 60.2429 151.176 60.2216C151.2 60.2005 151.619 59.9831 152.107 59.7387C155.629 57.975 158.04 55.0262 158.915 51.4121C159.822 47.6688 159.614 41.5699 158.466 38.1955C156.618 32.7689 152.01 30.1476 143.3 29.5692C142.174 29.4943 136.321 29.4322 130.295 29.431L119.337 29.4289V54.0064ZM161.938 54.007V78.5848L179.713 78.5503L197.487 78.5156L198.468 73.327C199.008 70.4733 199.424 68.0924 199.392 68.036C199.36 67.9797 193.839 67.9336 187.122 67.9336H174.91V63.496V59.0584H184.731H194.552L194.695 58.3416C195.131 56.156 196.483 48.8113 196.483 48.6268C196.483 48.4307 195.45 48.4066 185.731 48.3749L174.978 48.3399V44.2437V40.1474L185.995 40.1125C196.337 40.0797 197.016 40.0629 197.082 39.8394C197.12 39.7085 197.558 37.42 198.055 34.7541C198.552 32.0881 198.99 29.7994 199.027 29.6679C199.092 29.4411 198.146 29.4289 180.517 29.4289H161.938V54.007ZM200.853 54.0064V78.5839L217.476 78.5876C242.647 78.5932 247.461 78.582 247.525 78.5174C247.558 78.4849 248.101 76.7815 248.732 74.732C249.364 72.6827 250.096 70.3141 250.359 69.4686L250.837 67.9315L259.04 67.9667L267.243 68.0019L268.899 73.2929L270.556 78.5839H277.619H284.683L284.552 78.2767C284.479 78.1078 280.612 67.1074 275.958 53.8315C271.304 40.5557 267.459 29.634 267.414 29.5612C267.363 29.4782 264.338 29.4289 259.302 29.4289H251.273L250.945 30.3506C250.765 30.8576 247.086 41.3886 242.769 53.753C238.452 66.1175 234.9 76.2154 234.876 76.1929C234.851 76.1704 235.205 74.2483 235.661 71.9216C236.117 69.5949 236.49 67.5922 236.49 67.471C236.49 67.2703 235.507 67.2509 225.362 67.2509H214.234V48.3399V29.4289H207.543H200.853V54.0064ZM356.1 53.9383V78.4598L369.515 78.4147C382.85 78.37 382.941 78.3679 384.637 78.0545C390.551 76.962 393.948 74.532 395.359 70.3835C395.994 68.5149 396.161 67.2631 396.166 64.3153C396.172 61.276 395.997 60.0862 395.274 58.2414C394.789 57.0044 394.229 56.166 393.157 55.0708C392.194 54.0866 391.464 53.5659 390.112 52.8963L389.1 52.3956L389.652 52.1138C391.14 51.3546 392.793 49.6522 393.572 48.0767C394.36 46.4811 394.624 45.237 394.705 42.7382C394.788 40.1608 394.618 38.6346 394.053 36.8803C392.787 32.9517 389.945 30.7672 384.774 29.7475C383.746 29.5447 382.039 29.5128 369.857 29.4677L356.1 29.4168V53.9383ZM435.444 30.1458C434.951 32.6306 433.519 40.3614 433.519 40.5429C433.519 40.7414 434.272 40.7619 441.575 40.7619H449.631V59.6046V78.4473H456.322H463.012V59.6058V40.7643L469.936 40.729L476.859 40.6936L477.843 35.505C478.385 32.6513 478.866 30.1167 478.914 29.8727L479 29.4289H457.293H435.587L435.444 30.1458ZM397.882 54.0747V78.5839H415.632C425.395 78.5839 433.383 78.5542 433.383 78.5182C433.383 78.482 433.813 76.1724 434.339 73.3856C434.864 70.5989 435.294 68.2321 435.294 68.1263C435.294 67.9619 433.501 67.9336 423.074 67.9336H410.853V63.496V59.0584H420.659H430.465L431.39 54.1088C431.899 51.3866 432.348 48.9901 432.388 48.7837L432.461 48.4082H421.655H410.849L410.885 44.2778L410.922 40.1474L421.947 40.1125C428.011 40.0932 432.973 40.0517 432.973 40.0201C432.973 39.9884 433.403 37.6887 433.929 34.9099C434.455 32.131 434.885 29.7916 434.885 29.7114C434.885 29.6086 429.419 29.5655 416.383 29.5655H397.882V54.0747ZM380.062 39.9152C380.955 40.3269 381.272 40.6417 381.653 41.4921C381.929 42.1076 381.968 42.409 381.964 43.9023C381.961 45.3744 381.918 45.7055 381.65 46.3098C381.072 47.6174 380.139 48.174 378.141 48.4029C377.471 48.4796 375.003 48.543 372.656 48.5437L368.389 48.5448V44.0318V39.5187L373.885 39.56C379.287 39.6006 379.392 39.6066 380.062 39.9152ZM142.228 40.42C144.844 40.9207 145.78 42.0025 146.103 44.8995C146.248 46.1958 146.131 47.9238 145.827 48.9785C145.571 49.8672 144.862 50.7657 144.09 51.1793C142.814 51.863 141.935 51.9725 137.054 52.055L132.582 52.1306V46.1732V40.2157H136.871C140.112 40.2157 141.421 40.2657 142.228 40.42ZM261.598 49.3266C262.958 53.6993 264.071 57.3398 264.071 57.4167C264.071 57.5095 262.349 57.5565 258.94 57.5565C254.893 57.5565 253.821 57.5204 253.868 57.3858C253.901 57.292 255.058 53.5789 256.44 49.1346C257.821 44.6902 258.99 41.1265 259.038 41.2152C259.086 41.3038 260.238 44.954 261.598 49.3266ZM380.268 58.1294C381.888 58.5605 382.648 59.1865 383.088 60.4538C383.287 61.0248 383.339 61.5869 383.339 63.1547C383.339 65.9919 382.934 67.0028 381.513 67.7186C380.379 68.2896 379.726 68.3433 373.912 68.3433H368.389V63.0736V57.8039L373.953 57.8667C378.243 57.9152 379.689 57.9753 380.268 58.1294Z" fill="white"></path><path fill-rule="evenodd" clip-rule="evenodd" d="M312.988 0.0696013C312.937 0.121214 312.894 0.284791 312.894 0.433211C312.894 0.581632 311.235 6.04807 309.206 12.5809C306.489 21.332 305.556 24.5051 305.664 24.6345C305.888 24.9047 309.946 24.8363 310.22 24.5578C310.387 24.3885 312.156 19.738 313.197 16.7308C313.349 16.2929 313.52 15.9857 313.577 16.0481C313.703 16.1859 316.581 24.0522 316.581 24.2598C316.581 24.3407 316.717 24.5025 316.884 24.6194C317.128 24.79 317.613 24.8319 319.342 24.8319C321.346 24.8319 321.496 24.8143 321.496 24.5798C321.496 24.441 320.858 22.4594 320.078 20.1763C316.875 10.7988 313.654 1.24072 313.505 0.671067C313.35 0.0787496 313.178 -0.120601 312.988 0.0696013ZM270.635 29.693C270.785 29.8085 276.486 33.8722 283.304 38.7235C290.122 43.5749 295.851 47.6844 296.037 47.8559C296.267 48.0695 296.373 48.3137 296.373 48.6329C296.373 48.8888 294.157 55.7146 291.448 63.8013C288.739 71.8878 286.544 78.5685 286.57 78.6471C286.618 78.7897 353.909 30.3213 354.232 29.9117C354.326 29.7926 354.403 29.6456 354.403 29.5848C354.403 29.5241 335.494 29.4763 312.382 29.4787C274.548 29.4826 270.389 29.504 270.635 29.693ZM329.143 53.7307C328.73 54.0765 328.008 54.6336 327.538 54.9686C326.798 55.4971 326.685 55.6353 326.685 56.0123C326.685 56.2512 327.269 58.1955 327.982 60.3327C328.696 62.47 329.279 64.2661 329.279 64.3238C329.279 64.3817 329.23 64.429 329.169 64.429C329.108 64.429 327.342 63.3836 325.244 62.1059C323.146 60.8282 321.358 59.8105 321.27 59.8443C320.801 60.024 317.805 62.459 317.839 62.6321C317.86 62.7416 319.721 64.1549 321.974 65.7728C333.205 73.8381 338.758 77.7982 338.79 77.766C338.81 77.7463 338.177 75.8589 337.383 73.5715C336.59 71.2842 334.724 65.849 333.237 61.4933C331.75 57.1377 330.49 53.4663 330.438 53.335C330.286 52.9538 329.947 53.0573 329.143 53.7307Z" fill="#FDD528"></path></svg> 