<?xml version="1.0" encoding="UTF-8"?> <svg xmlns="http://www.w3.org/2000/svg" width="660" height="106" viewBox="0 0 660 106" fill="none"><path d="M360.454 102.406V80.7529H382.268V102.406H360.454Z" fill="white"></path><path d="M454.569 104.385C439.734 104.385 428.496 99.8091 420.855 90.6571V101.377H396.226V0.728516H420.855V41.9046C428.496 32.7526 439.734 28.1766 454.569 28.1766C461.5 28.1766 467.323 28.9208 472.02 30.4012C476.718 31.8817 480.515 34.0589 483.41 36.9406C486.305 39.8145 488.371 43.3454 489.599 47.5256C490.828 51.7057 491.442 56.4559 491.442 61.7761V70.9281C491.442 76.2404 490.828 80.9747 489.599 85.1073C488.371 89.2479 486.305 92.7551 483.41 95.629C480.515 98.5028 476.71 100.688 472.02 102.168C467.323 103.649 461.508 104.393 454.569 104.393V104.385ZM448.508 87.6566C452.192 87.6566 455.223 87.2212 457.592 86.3503C459.961 85.4794 461.827 84.284 463.191 82.756C464.555 81.2359 465.52 79.4467 466.086 77.3962C466.653 75.3537 466.94 73.1923 466.94 70.9281V61.7761C466.94 59.5118 466.653 57.3584 466.086 55.3079C465.512 53.2654 464.547 51.4761 463.191 49.9482C461.827 48.4281 459.961 47.201 457.592 46.2905C455.223 45.3722 452.192 44.9209 448.508 44.9209C439.287 44.9209 432.372 46.5756 427.77 49.8848C423.16 53.1941 420.855 58.6885 420.855 66.3521C420.855 80.5551 430.075 87.6566 448.508 87.6566Z" fill="white"></path><path d="M497.026 66.4863C497.026 62.5041 497.959 58.2052 499.833 53.5896C501.7 48.9741 504.691 44.6752 508.79 40.6929C512.898 36.7107 518.186 33.4093 524.662 30.7809C531.139 28.1525 538.931 26.8462 548.055 26.8462C557.18 26.8462 564.653 28.1842 570.763 30.8522C576.872 33.5202 581.793 36.9403 585.534 41.1046C589.275 45.2689 591.939 49.8608 593.534 54.888C595.129 59.9153 595.927 64.8238 595.927 69.6215H520.961C521.328 72.7882 522.285 75.5513 523.833 77.9026C525.38 80.2539 527.366 82.2252 529.783 83.8086C532.199 85.392 534.983 86.5954 538.125 87.4029C541.268 88.2105 544.578 88.6221 548.04 88.6221C554.149 88.6221 559.206 87.8542 563.226 86.3104C567.237 84.7745 570.157 82.3757 571.983 79.1139H595.919C594.364 83.009 592.226 86.6033 589.49 89.9047C586.755 93.214 583.405 96.0403 579.433 98.3916C575.469 100.743 570.859 102.603 565.618 103.957C560.37 105.319 554.516 105.992 548.04 105.992C539.561 105.992 532.128 104.947 525.739 102.873C519.358 100.79 514.046 97.9641 509.803 94.3857C505.56 90.8072 502.37 86.6271 500.224 81.8294C498.079 77.0317 497.01 71.9174 497.01 66.4863H497.026ZM548.047 44.216C542.026 44.216 536.786 45.2848 532.319 47.4065C527.853 49.5362 524.614 52.7267 522.604 56.9781H571.991C570.898 54.6268 569.303 52.4971 567.206 50.597C565.379 48.9661 562.938 47.5015 559.884 46.1873C556.829 44.8731 552.881 44.216 548.047 44.216Z" fill="white"></path><path d="M635.574 71.3713C635.574 75.0052 635.726 77.8157 636.045 79.8107C636.356 81.8058 637.273 83.2625 638.789 84.1967C640.304 85.123 642.625 85.6851 645.752 85.8593C648.878 86.0414 653.297 86.1285 659.008 86.1285V102.342C651.064 102.342 644.348 102.279 638.86 102.144C633.373 102.01 628.819 101.662 625.206 101.084C621.593 100.506 618.801 99.6031 616.839 98.3601C614.877 97.1172 613.425 95.3517 612.484 93.0479C611.543 90.744 610.985 87.8227 610.809 84.2759C610.626 80.737 610.538 76.4381 610.538 71.3871V44.9208H596.477V30.9632H610.538V0H635.574V30.9632H659.008V44.9208H635.574V71.3713Z" fill="white"></path><path d="M261.585 103.031C265.413 99.8169 268.995 96.8085 272.584 93.8079C282.881 85.2022 293.281 76.6994 303.458 67.9433C309.113 63.0743 314.258 57.6592 318.341 51.3493C323.302 43.6857 321.309 35.365 314.952 30.987C312.423 29.2452 309.05 28.3506 305.939 27.9073C301.464 27.2739 296.886 27.3056 292.348 27.2422C282.506 27.1077 272.664 27.0839 262.821 27.0443C261.776 27.0443 261.402 26.6485 261.402 25.6272C261.426 18.3673 261.441 11.1075 261.394 3.84767C261.386 2.4622 262.08 2.26428 263.22 2.27219C269.96 2.30386 276.691 2.28803 283.431 2.31178C289.764 2.33553 296.105 2.20094 302.43 2.4622C314.816 2.9768 326.094 6.70568 335.378 15.1056C343.673 22.6108 347.031 32.0795 345.866 43.2107C345.372 47.9609 344.51 52.5765 342.748 57.0258C339.972 64.0402 335.673 70.0729 330.545 75.5594C323.39 83.2071 315.167 89.6595 306.92 96.0801C304.336 98.091 301.807 100.165 299.199 102.129C298.561 102.612 297.684 103.063 296.918 103.071C285.521 103.134 274.115 103.126 262.71 103.126C262.446 103.126 262.183 103.087 261.593 103.031H261.585Z" fill="url(#paint0_linear_1672_890)"></path><path d="M309.32 102.849C312.973 100.007 316.483 97.3468 319.904 94.5838C324.937 90.5145 329.89 86.3502 334.923 82.2809C335.489 81.8217 336.319 81.4655 337.044 81.4338C339.453 81.3309 341.878 81.4496 344.287 81.3784C345.523 81.3467 346.041 81.703 346.033 83.0093C345.985 89.1766 346.001 95.3439 346.025 101.511C346.025 102.517 345.81 103.102 344.598 103.102C333.041 103.079 321.476 103.095 309.919 103.095C309.823 103.095 309.719 103.015 309.32 102.857V102.849Z" fill="url(#paint1_linear_1672_890)"></path><path d="M59.1971 22.2866C61.4383 26.6014 63.4801 30.7103 65.6815 34.7241C69.3264 41.3585 73.2984 47.795 78.722 53.2023C82.032 56.4957 85.7408 59.1638 90.5343 59.9317C94.1474 60.5096 97.593 59.7892 100.967 58.5858C106.414 56.6383 111.335 53.7248 116.089 50.4947C116.631 50.1305 117.182 49.7743 117.724 49.418C117.916 49.4734 118.107 49.5368 118.29 49.5922C118.099 51.4764 118.306 53.5031 117.652 55.2132C115.1 61.8397 112.301 68.3712 109.501 74.9026C109.27 75.441 108.392 75.9556 107.77 76.0269C106.271 76.1931 104.731 76.0823 103.216 76.0823C72.7481 76.0823 42.2802 76.0664 11.8123 76.1219C10.0576 76.1219 9.11644 75.6864 8.43849 73.9843C5.90216 67.5953 3.08667 61.3093 0.614144 54.8886C-0.0159518 53.2656 0.215349 51.3102 0 49.0142C2.2811 50.4868 4.07568 51.6902 5.91013 52.8223C10.9988 55.9495 16.2309 58.76 22.2288 59.8605C27.5328 60.8342 32.1428 59.3221 36.3063 56.1712C41.5943 52.1652 45.4945 46.9479 48.8045 41.3427C52.2182 35.5633 55.257 29.5702 58.4633 23.6721C58.6707 23.2921 58.878 22.9041 59.1971 22.3104V22.2866Z" fill="url(#paint2_linear_1672_890)"></path><path d="M0.191328 104.67C0.191328 100.11 0.167401 95.811 0.239184 91.5201C0.239184 91.1875 0.861303 90.7363 1.292 90.5779C1.73865 90.4117 2.28899 90.5225 2.79944 90.5225C40.3659 90.5225 77.9323 90.5225 115.499 90.5225C117.28 90.5225 118.171 91.4092 118.171 93.1826C118.171 96.3098 118.075 99.4449 118.211 102.572C118.282 104.29 117.716 104.702 116.017 104.702C81.0429 104.654 46.0686 104.662 11.0944 104.662H0.191328V104.67Z" fill="url(#paint3_linear_1672_890)"></path><path d="M50.097 6.81654C49.1479 8.98578 48.2785 11.0284 47.3613 13.0472C43.5568 21.4629 39.513 29.7757 34.0894 37.3047C32.2709 39.8302 30.0297 42.0628 27.8842 44.3429C26.6719 45.6254 25.0607 46.1004 23.4017 45.3087C19.661 43.5353 15.8087 41.9044 12.3073 39.7273C8.40706 37.3047 4.81791 34.3834 1.16496 31.5887C0.638546 31.1849 0.2238 30.2982 0.2238 29.6332C0.159993 22.4208 0.191896 15.2164 0.167969 8.00408C0.167969 7.06196 0.391294 6.54736 1.46804 6.54736C17.4039 6.57111 33.3317 6.5632 49.2676 6.57903C49.4271 6.57903 49.5866 6.66612 50.0891 6.80862L50.097 6.81654Z" fill="url(#paint4_linear_1672_890)"></path><path d="M68.4648 6.68216C69.3581 6.63466 70.0201 6.57132 70.6821 6.57132C85.7725 6.57132 100.871 6.58716 115.961 6.53174C117.604 6.53174 118.226 6.89592 118.202 8.6614C118.107 15.5333 118.195 22.4131 118.123 29.293C118.115 30.0847 117.796 31.1693 117.221 31.6285C111.598 36.1095 105.896 40.4875 99.3634 43.6464C98.0554 44.2797 96.6596 44.7468 95.3037 45.2773C93.4214 46.0056 91.6906 45.689 90.3666 44.2006C87.9499 41.493 85.3578 38.8725 83.3319 35.8878C77.358 27.1 72.8596 17.5205 68.752 7.75887C68.6483 7.51344 68.6084 7.23635 68.4648 6.68216Z" fill="url(#paint5_linear_1672_890)"></path><path d="M218.779 1.91602H145.289V103.126H165.986C166.896 103.126 167.35 102.707 167.35 101.852V63.1773H187.817C193.447 63.1773 198.002 58.9339 198.002 53.7008V44.2638C198.002 43.3296 197.547 42.8545 196.638 42.8545H167.35V23.2364H218.787C219.6 23.2364 219.999 22.8088 219.999 21.9617V3.19064C219.999 2.34353 219.6 1.91602 218.787 1.91602H218.779Z" fill="url(#paint6_linear_1672_890)"></path><path d="M253.059 3.19054V101.859C253.059 102.707 252.66 103.126 251.863 103.126H229.315C228.597 103.126 228.238 102.707 228.238 101.859V3.19054C228.238 2.34343 228.597 1.92383 229.315 1.92383H251.863C252.66 1.92383 253.059 2.34343 253.059 3.19054Z" fill="url(#paint7_linear_1672_890)"></path><defs><linearGradient id="paint0_linear_1672_890" x1="-0.000259349" y1="53.3127" x2="346.082" y2="53.3127" gradientUnits="userSpaceOnUse"><stop offset="0.68" stop-color="#C2D51C"></stop><stop offset="1" stop-color="#79C100"></stop></linearGradient><linearGradient id="paint1_linear_1672_890" x1="-0.000672845" y1="53.3128" x2="346.081" y2="53.3128" gradientUnits="userSpaceOnUse"><stop offset="0.68" stop-color="#C2D51C"></stop><stop offset="1" stop-color="#79C100"></stop></linearGradient><linearGradient id="paint2_linear_1672_890" x1="0" y1="53.3131" x2="346.082" y2="53.3131" gradientUnits="userSpaceOnUse"><stop offset="0.68" stop-color="#C2D51C"></stop><stop offset="1" stop-color="#79C100"></stop></linearGradient><linearGradient id="paint3_linear_1672_890" x1="-9.29705e-05" y1="53.3129" x2="346.082" y2="53.3129" gradientUnits="userSpaceOnUse"><stop offset="0.68" stop-color="#C2D51C"></stop><stop offset="1" stop-color="#79C100"></stop></linearGradient><linearGradient id="paint4_linear_1672_890" x1="0.000475052" y1="53.3128" x2="346.082" y2="53.3128" gradientUnits="userSpaceOnUse"><stop offset="0.68" stop-color="#C2D51C"></stop><stop offset="1" stop-color="#79C100"></stop></linearGradient><linearGradient id="paint5_linear_1672_890" x1="-0.00020669" y1="53.313" x2="346.082" y2="53.313" gradientUnits="userSpaceOnUse"><stop offset="0.68" stop-color="#C2D51C"></stop><stop offset="1" stop-color="#79C100"></stop></linearGradient><linearGradient id="paint6_linear_1672_890" x1="0.000250243" y1="53.3128" x2="346.082" y2="53.3128" gradientUnits="userSpaceOnUse"><stop offset="0.68" stop-color="#C2D51C"></stop><stop offset="1" stop-color="#79C100"></stop></linearGradient><linearGradient id="paint7_linear_1672_890" x1="0.000231169" y1="53.3127" x2="346.082" y2="53.3127" gradientUnits="userSpaceOnUse"><stop offset="0.68" stop-color="#C2D51C"></stop><stop offset="1" stop-color="#79C100"></stop></linearGradient></defs></svg> 