<?xml version="1.0" encoding="UTF-8"?> <!-- Generator: Adobe Illustrator 24.1.2, SVG Export Plug-In . SVG Version: 6.00 Build 0) --> <svg xmlns="http://www.w3.org/2000/svg" xmlns:xlink="http://www.w3.org/1999/xlink" version="1.1" id="Layer_1" x="0px" y="0px" viewBox="0 0 130.25 30" style="enable-background:new 0 0 130.25 30;" xml:space="preserve"> <style type="text/css"> .st0{fill:#fff;} </style> <g> <path class="st0" d="M20.89,17.35l-1.43,11.62c-0.04,0.34-0.31,0.57-0.68,0.57h-5.83c-0.38,0-0.57-0.19-0.57-0.49v-0.08l1.43-11.81 c0.08-0.45,0.15-0.9,0.15-1.35c0-0.68-0.07-1.09-0.3-1.39c-0.3-0.41-0.83-0.56-1.54-0.56c-1.02,0-2.37,0.19-2.37,0.19L7.91,28.97 c-0.04,0.34-0.3,0.57-0.67,0.57H1.4c-0.37,0-0.56-0.19-0.56-0.49v-0.08L2.91,12.2c0.15-1.35,1.54-1.73,3.95-2.18 c1.88-0.38,4.51-0.71,6.88-0.71c2.56,0,4.59,0.27,5.91,1.28c0.97,0.71,1.54,1.84,1.54,3.61C21.18,15.21,20.99,16.34,20.89,17.35"></path> <path class="st0" d="M34.99,14.51c-0.33-0.51-0.92-0.74-1.87-0.74c-2.31,0-2.75,1.29-3.19,4.7c-0.18,1.32-0.4,2.68-0.4,4 c0,0.95,0.11,1.58,0.44,2.02c0.37,0.37,0.92,0.55,1.77,0.55c2.27,0,2.79-1.21,3.23-4.4c0.18-1.4,0.4-2.83,0.4-4.19 C35.35,15.58,35.28,14.92,34.99,14.51 M41.08,24.06c-1.25,3.3-3.86,5.47-9.87,5.47c-2.79,0-4.73-0.48-6.06-1.32 c-2.01-1.25-2.6-3.34-2.6-5.91c0-2.64,0.55-6.31,1.68-8.52c1.43-2.72,4.08-4.48,9.43-4.48c3.12,0,5.18,0.59,6.5,1.58 c1.69,1.29,2.16,3.26,2.16,5.69C42.33,18.88,41.89,21.97,41.08,24.06"></path> <path class="st0" d="M57.1,28.94c-0.15,0.35-0.38,0.62-0.76,0.62h-9.79c-0.39,0-0.58-0.27-0.61-0.62l-2.56-18.36v-0.19 c0-0.5,0.34-0.92,0.92-0.92h5.44c0.53,0,0.88,0.08,0.92,0.73l0.95,14.99h1.03l4.32-14.96c0.19-0.65,0.53-0.77,1.07-0.77h5.47 c0.5,0,0.76,0.31,0.76,0.69c0,0.12-0.04,0.27-0.07,0.42L57.1,28.94z"></path> <path class="st0" d="M73.96,6.36c-0.12,0.92-0.57,1.23-1.46,1.23h-4.53c-0.77,0-1.16-0.23-1.16-0.92V6.36l0.58-4.49 c0.11-0.92,0.54-1.23,1.42-1.23h4.53c0.81,0,1.19,0.27,1.19,0.92c0,0.11,0,0.19-0.03,0.3L73.96,6.36z M71.15,29.01 c-0.07,0.35-0.34,0.58-0.73,0.58h-5.91c-0.34,0-0.58-0.19-0.58-0.5v-0.08l2.35-19c0.04-0.34,0.35-0.57,0.69-0.57h5.91 c0.35,0,0.58,0.19,0.58,0.5v0.08L71.15,29.01z"></path> <path class="st0" d="M86.91,14.47c-0.33-0.58-0.96-0.66-1.95-0.66c-1.1,0-2.31,0.29-2.31,0.29L81.33,24.9c0,0,0.95,0.15,1.8,0.15 c2.2,0,3.01-0.44,3.63-4.44c0.22-1.43,0.44-2.89,0.44-4.33C87.2,15.43,87.09,14.85,86.91,14.47 M92.74,24.5 c-1.4,3.34-3.97,5.03-9.51,5.03c-3.04,0-5.58-0.4-7.05-0.89c-1.54-0.52-1.91-1.1-1.91-2.16c0-0.52,0.08-1.14,0.19-1.91l2.61-22.21 c0.07-0.59,0.29-0.95,0.92-1.07l5.25-0.77c0.07,0,0.19-0.04,0.25-0.04c0.38,0,0.67,0.19,0.67,0.63c0,0.04-0.03,0.07-0.03,0.11 l-0.93,8.65c0,0,1.73-0.58,3.97-0.58c2.54,0,4.41,0.52,5.54,1.8c1,1.1,1.47,2.75,1.47,5.21C94.17,18.77,93.62,22.29,92.74,24.5"></path> <path class="st0" d="M105.82,13.63c-2.68,0-3.2,2.72-3.31,5.14c2.61-0.15,5.91,0.04,5.91-2.64 C108.43,14.44,107.47,13.63,105.82,13.63 M102.15,22.04c-0.04,0.18-0.04,0.37-0.04,0.51c0,1.03,0.44,1.73,1.47,2.13 c0.77,0.29,1.84,0.44,3.27,0.44c2.19,0,4.37-0.7,4.98-0.84c0.04,0,0.04-0.04,0.07-0.04c0.3,0,0.55,0.26,0.59,0.7l0.26,2.35v0.11 c0,0.44-0.22,0.73-0.51,0.85c-2.49,0.95-5.1,1.29-7.7,1.29c-5.7,0-9.03-2.06-9.03-7.9c0-4.14,1.39-7.63,2.61-9.25 c1.76-2.39,4.95-3.12,8.11-3.12c5.17,0,8.62,1.36,8.62,6.42C114.85,21.89,109.2,21.82,102.15,22.04"></path> <path class="st0" d="M129.22,13.74c-0.04,0.34-0.3,0.57-0.68,0.57h-4.45l-0.91,6.88c-0.03,0.54-0.15,1.22-0.15,1.82 c0,0.53,0.07,0.95,0.45,1.26c0.3,0.22,0.76,0.38,1.45,0.38c1.14,0,1.86-0.16,2.39-0.23h0.16c0.34,0,0.37,0.23,0.42,0.46l0.19,2.96 v0.15c0,0.46-0.15,0.76-0.69,0.92c-0.45,0.11-2.21,0.68-4.94,0.68c-1.94,0-3.46-0.26-4.56-0.91c-1.37-0.76-2.13-2.13-2.13-4.18 c0-1.02,0.15-1.97,0.27-2.96l2.09-16.95c0.08-0.61,0.31-0.99,0.95-1.1l5.48-0.87c0.07,0,0.14-0.04,0.23-0.04 c0.38,0,0.64,0.19,0.64,0.61v0.15l-0.73,6h4.45c0.34,0,0.58,0.19,0.58,0.5v0.08L129.22,13.74z"></path> </g> </svg> 